<?xml version="1.0" standalone="no"?>
<!DOCTYPE svg PUBLIC "-//W3C//DTD SVG 20010904//EN"
 "http://www.w3.org/TR/2001/REC-SVG-20010904/DTD/svg10.dtd">
<svg version="1.0" xmlns="http://www.w3.org/2000/svg"
 width="512.000000pt" height="512.000000pt" viewBox="0 0 512.000000 512.000000"
 preserveAspectRatio="xMidYMid meet">
<metadata>
Created by potrace 1.14, written by Peter Selinger 2001-2017
</metadata>
<g transform="translate(0.000000,512.000000) scale(0.100000,-0.100000)"
fill="#000000" stroke="none">
<path d="M2488 4245 c-2 -2 -32 -5 -68 -9 -70 -6 -140 -18 -238 -40 -297 -67
-592 -224 -794 -423 -79 -76 -173 -191 -229 -278 -78 -121 -152 -280 -205
-444 -33 -100 -40 -110 -65 -104 -25 7 -407 383 -501 493 -86 102 -150 191
-234 329 -75 123 -96 140 -135 105 -17 -15 -18 -27 -14 -113 3 -53 8 -107 10
-121 2 -14 6 -45 10 -70 33 -253 167 -799 235 -955 4 -11 23 -56 40 -100 36
-90 143 -312 190 -395 38 -66 188 -291 227 -339 92 -114 208 -237 337 -356
113 -106 319 -241 501 -330 165 -80 346 -146 465 -169 14 -2 61 -12 105 -20
152 -30 404 -40 570 -22 96 10 264 44 355 71 3 1 19 5 35 10 17 4 35 11 40 15
6 4 23 10 40 14 50 12 256 114 330 164 316 210 522 487 659 886 30 86 47 122
60 124 23 5 81 -44 260 -222 217 -215 316 -331 429 -501 26 -38 50 -74 55 -80
4 -5 18 -31 32 -57 36 -70 46 -80 76 -80 45 0 55 25 49 122 -6 101 -21 215
-40 325 -8 44 -17 96 -20 115 -7 45 -82 349 -102 415 -29 96 -86 270 -98 300
-7 17 -18 46 -25 65 -160 434 -457 863 -790 1142 -326 274 -759 470 -1130 513
-25 3 -61 8 -80 12 -33 6 -337 13 -342 8z"/>
</g>
</svg>
